<svg width="20" height="20" fill="none" xmlns="http://www.w3.org/2000/svg"><g clip-path="url(#clip0_2_384)" fill="#757575"><path d="M18.9 7.695c-1.256-2.047-4.111-5.48-9.123-5.48S1.91 5.647.655 7.694a3.98 3.98 0 000 4.183c1.255 2.047 4.11 5.48 9.122 5.48s7.867-3.433 9.122-5.48a3.981 3.981 0 000-4.183zm-1.38 3.335c-1.08 1.755-3.52 4.708-7.744 4.708s-6.664-2.953-7.742-4.708a2.366 2.366 0 010-2.486c1.078-1.756 3.518-4.71 7.742-4.71s6.664 2.951 7.742 4.71a2.366 2.366 0 010 2.486z"/><path d="M9.777 5.735a4.043 4.043 0 00-3.739 2.501 4.056 4.056 0 00.877 4.415 4.045 4.045 0 006.909-2.865 4.059 4.059 0 00-1.187-2.863 4.05 4.05 0 00-2.86-1.188zm0 6.482a2.426 2.426 0 01-2.243-1.5 2.434 2.434 0 011.77-3.315 2.425 2.425 0 012.492 1.034 2.433 2.433 0 01-2.02 3.781z"/></g><defs><clipPath id="clip0_2_384"><path fill="#fff" transform="translate(.065 .063)" d="M0 0h19.424v19.447H0z"/></clipPath></defs></svg>