<svg width="17" height="17" fill="none" xmlns="http://www.w3.org/2000/svg"><path d="M8.074 6.06A2.69 2.69 0 005.39 8.746a2.69 2.69 0 002.684 2.685 2.69 2.69 0 002.685-2.685 2.69 2.69 0 00-2.685-2.684zm8.052 2.685c0-1.112.01-2.213-.053-3.323-.062-1.289-.356-2.433-1.299-3.375C13.83 1.102 12.688.81 11.4.748 10.288.686 9.186.696 8.076.696c-1.111 0-2.213-.01-3.323.052-1.288.062-2.432.356-3.375 1.299C.434 2.991.142 4.133.08 5.422.017 6.534.027 7.635.027 8.745c0 1.11-.01 2.213.052 3.323.063 1.289.357 2.433 1.3 3.375.944.945 2.086 1.237 3.374 1.3 1.112.062 2.214.052 3.323.052 1.112 0 2.214.01 3.323-.053 1.29-.062 2.433-.356 3.376-1.299.944-.944 1.236-2.086 1.298-3.375.065-1.11.053-2.211.053-3.323zm-8.052 4.13a4.125 4.125 0 01-4.13-4.13 4.125 4.125 0 014.13-4.13 4.125 4.125 0 014.13 4.13 4.125 4.125 0 01-4.13 4.13zm4.3-7.465a.963.963 0 110-1.93.963.963 0 110 1.93z" fill="#555"/></svg>