<svg width="14" height="18" fill="none" xmlns="http://www.w3.org/2000/svg"><path d="M.921 6.927c0-.733.128-1.425.38-2.071a5.31 5.31 0 011.056-1.697 7.17 7.17 0 011.549-1.252 7.075 7.075 0 011.885-.795A8.07 8.07 0 017.85.847c1.073 0 2.07.227 2.997.68a5.67 5.67 0 012.252 1.972c.578.861.865 1.836.865 2.923 0 .652-.064 1.29-.195 1.913a7.793 7.793 0 01-.608 1.801 6.221 6.221 0 01-1.02 1.523 4.447 4.447 0 01-1.476 1.05c-.607.265-1.263.4-1.926.392-.46 0-.92-.108-1.374-.326-.454-.216-.78-.514-.976-.896-.069.265-.163.648-.288 1.148-.12.499-.202.82-.237.967a20.95 20.95 0 01-.21.722 4.88 4.88 0 01-.264.724l-.324.635c-.14.273-.297.536-.469.79-.17.246-.381.54-.633.88l-.14.05-.093-.102c-.101-1.067-.153-1.706-.153-1.917 0-.624.074-1.325.221-2.102.144-.777.372-1.754.678-2.928.306-1.174.482-1.864.529-2.069-.216-.44-.325-1.014-.325-1.72 0-.564.176-1.093.53-1.59.353-.495.8-.743 1.343-.743.415 0 .737.137.968.413.232.275.345.622.345 1.045 0 .448-.149 1.097-.448 1.946-.3.85-.449 1.483-.449 1.904 0 .426.153.783.458 1.063.301.28.7.432 1.11.423.373 0 .719-.085 1.04-.255.316-.166.59-.402.8-.69.457-.628.782-1.34.957-2.096.09-.397.16-.775.204-1.13.046-.357.066-.694.066-1.014 0-1.175-.373-2.09-1.114-2.746-.745-.655-1.715-.981-2.909-.981-1.357 0-2.492.439-3.4 1.32-.91.877-1.368 1.993-1.368 3.346 0 .299.045.587.131.866.084.278.175.5.274.663.098.161.19.318.274.463.085.145.13.249.13.311 0 .19-.05.438-.151.744-.105.306-.228.459-.377.459-.014 0-.073-.01-.174-.032a2.08 2.08 0 01-.922-.57 2.985 2.985 0 01-.621-.963 6.58 6.58 0 01-.332-1.1 4.6 4.6 0 01-.124-1.086z" fill="#555"/></svg>