<svg width="20" height="21" fill="none" xmlns="http://www.w3.org/2000/svg"><g clip-path="url(#clip0_2_373)" fill="#757575"><path d="M18.68 16.167h-1.62v-1.62a.81.81 0 00-1.382-.574.811.811 0 00-.237.573v1.62h-1.618a.809.809 0 00-.573 1.384.809.809 0 00.573.238h1.618v1.62a.81.81 0 001.382.573.81.81 0 00.237-.573v-1.62h1.619a.809.809 0 00.572-1.384.809.809 0 00-.572-.237z"/><path d="M17.061 5.633h-2.428c0-1.29-.512-2.526-1.422-3.438a4.853 4.853 0 00-6.868 0 4.865 4.865 0 00-1.422 3.438H2.493a2.427 2.427 0 00-2.428 2.43v8.104A4.059 4.059 0 001.25 19.03a4.05 4.05 0 002.86 1.188h7.285a.809.809 0 00.809-.81.81.81 0 00-.81-.81H4.112a2.427 2.427 0 01-2.428-2.431V8.064a.81.81 0 01.81-.81H4.92v1.62a.81.81 0 001.381.573.81.81 0 00.238-.573v-1.62h6.474v1.62a.81.81 0 001.382.573.81.81 0 00.237-.573v-1.62h2.428a.809.809 0 01.81.81v4.051a.81.81 0 001.381.573.81.81 0 00.237-.573V8.064a2.432 2.432 0 00-2.428-2.431zm-10.521 0a3.243 3.243 0 013.237-3.241 3.235 3.235 0 013.237 3.24H6.54z"/></g><defs><clipPath id="clip0_2_373"><path fill="#fff" transform="translate(.065 .771)" d="M0 0h19.424v19.447H0z"/></clipPath></defs></svg>