<svg width="32" height="39" fill="none" xmlns="http://www.w3.org/2000/svg"><path d="M5.97 6.946c.645 0 1.171-.526 1.171-1.171S6.615 4.603 5.97 4.603a1.172 1.172 0 100 2.343zm3.626 17.837v2.25a10.674 10.674 0 016.298-2.048c2.292 0 4.473.725 6.297 2.048v-2.25c0-1.889.948-3.558 2.387-4.563a4.498 4.498 0 00-4.485-4.265h-8.399A4.498 4.498 0 007.21 20.22a5.565 5.565 0 012.386 4.563zM22.822 12.53H8.915v1.897h13.907V12.53z" fill="#85B839"/><path d="M22.191 29.026a9.157 9.157 0 00-6.297-2.498c-2.361 0-4.582.89-6.298 2.498v2.055h12.595v-2.055zm3.36-22.08c.645 0 1.172-.526 1.172-1.171s-.527-1.172-1.172-1.172a1.172 1.172 0 000 2.343zm-9.639-3.168a1.89 1.89 0 001.889-1.89A1.89 1.89 0 0015.91 0a1.89 1.89 0 00-1.888 1.889 1.89 1.89 0 001.889 1.889z" fill="#85B839"/><path d="M27.76 20.757a4.03 4.03 0 00-4.026 4.026v7.837H8.054v-7.837a4.03 4.03 0 00-4.027-4.026A4.03 4.03 0 000 24.783a4.03 4.03 0 004.027 4.027h.771v7.069h22.191v-7.07h.772a4.03 4.03 0 004.026-4.026 4.03 4.03 0 00-4.026-4.026zM4.028 26.034a1.252 1.252 0 11.001-2.5 1.252 1.252 0 01-.001 2.5zm23.734 0a1.25 1.25 0 01-1.251-1.25 1.25 1.25 0 112.502 0 1.25 1.25 0 01-1.251 1.25zM8.698 10.988h14.337a7.29 7.29 0 001.662-2.928 6.524 6.524 0 01-3.032.757 6.523 6.523 0 01-5.8-3.547 6.533 6.533 0 01-5.8 3.547 6.527 6.527 0 01-3.028-.742 7.392 7.392 0 001.661 2.913zm.898 26.434H8.053v1.543h1.543v-1.543zm14.138 0h-1.543v1.543h1.543v-1.543z" fill="#85B839"/></svg>