<svg width="14" height="14" fill="none" xmlns="http://www.w3.org/2000/svg"><path fill-rule="evenodd" clip-rule="evenodd" d="M6.182.465c.519 0 1.016.208 1.383.58l5.576 5.644a1.98 1.98 0 01.573 1.4 1.998 1.998 0 01-.573 1.4l-3.66 3.705a1.953 1.953 0 01-1.383.58 1.935 1.935 0 01-1.383-.58L1.138 7.549a1.98 1.98 0 01-.572-1.4V2.445c0-.525.206-1.028.572-1.4.367-.37.864-.579 1.383-.579h3.661zm0 1.33H2.521a.636.636 0 00-.453.19.652.652 0 00-.187.459V6.15c0 .171.067.336.187.458l5.577 5.645c.25.253.656.253.906 0l3.66-3.706a.649.649 0 00.14-.706.649.649 0 00-.14-.21L6.636 1.985a.64.64 0 00-.454-.19h.001zM4.51 3.128c.349 0 .683.14.93.39a1.34 1.34 0 010 1.882 1.307 1.307 0 01-1.86 0 1.34 1.34 0 010-1.882c.247-.25.582-.39.93-.39z" fill="#7AC751"/></svg>