<svg width="68" height="11" fill="none" xmlns="http://www.w3.org/2000/svg"><path d="M17.73 3.857l.308-.042.142-.276 1.285-2.477s0 0 0 0l.002-.003.002-.001a.06.06 0 01.027-.006c.015 0 .026.004.03.007l.002.001h.001l.001.003h0l1.285 2.476.143.276.307.042 2.875.399h0l.008.001-2.065 1.914-.241.223.058.323.49 2.708a.058.058 0 01-.025.008c-.007 0-.015 0-.027-.006h0l-2.572-1.285-.268-.134-.269.134-2.572 1.285-.002.001a.045.045 0 01-.025.006.056.056 0 01-.024-.008l.489-2.709.058-.323-.24-.223-2.066-1.914.008-.001h0l2.875-.399zm4.662 5.583l.59-.107c.09.492-.456.86-.912.631l.322-.524zM3.626 3.858l.307-.043.143-.276 1.285-2.477s0 0 0 0l.002-.003h.001a.06.06 0 01.028-.007c.015 0 .026.004.03.007l.002.001h0l.002.003h0L6.711 3.54l.142.276.308.043 2.875.398h0l.008.001-2.065 1.914-.241.223.058.324.49 2.707a.058.058 0 01-.025.008.049.049 0 01-.027-.005h0L5.662 8.142l-.269-.134-.268.134-2.572 1.286h-.002a.045.045 0 01-.025.006.056.056 0 01-.025-.008l.49-2.708.058-.324-.24-.223L.742 4.257H.75l2.875-.4zM8.288 9.44l.59-.106c.089.492-.456.859-.913.63l.323-.524zm23.546-5.583l.307-.042.143-.276 1.285-2.477s0 0 0 0l.002-.003.001-.001a.06.06 0 01.028-.006c.015 0 .025.004.03.007l.002.001h0l.002.003h0l1.284 2.476.143.276.308.042 2.875.399h0l.007.001-2.064 1.914-.242.223.059.323.49 2.708a.058.058 0 01-.025.008c-.008 0-.016 0-.028-.006h0L33.87 8.142l-.268-.134-.268.134-2.572 1.285-.002.001a.045.045 0 01-.026.006.056.056 0 01-.024-.008l.49-2.709.058-.323-.241-.223-2.065-1.914a.1.1 0 01.007-.001h0l2.876-.399zm4.662 5.583l.59-.107c.089.492-.456.86-.913.631l.323-.524zm9.442-5.583l.308-.042.143-.276 1.284-2.477s0 0 0 0l.002-.003.002-.001a.06.06 0 01.028-.006c.014 0 .025.004.03.007l.002.001h0l.002.003h0l1.284 2.476.143.276.307.042 2.875.399h0l.008.001-2.065 1.914-.241.223.058.323.49 2.708a.058.058 0 01-.025.008c-.007 0-.015 0-.027-.006h0l-2.572-1.285-.268-.134-.269.134-2.571 1.285-.002.001a.045.045 0 01-.026.006.056.056 0 01-.024-.008l.49-2.709.058-.323-.242-.223-2.064-1.914.007-.001h0l2.875-.399zM50.6 9.44l.59-.107c.09.492-.456.86-.912.631l.322-.524z" fill="#fff" stroke="#7AC751" stroke-width="1.2"/><path d="M60.043 3.857l.307-.042.143-.276 1.285-2.477s0 0 0 0l.002-.003.001-.001a.06.06 0 01.028-.006c.015 0 .025.004.03.007l.002.001h0l.002.003h0l1.284 2.476.143.276.308.042 2.875.399h0l.007.001-2.064 1.914-.242.223.059.323.49 2.708a.058.058 0 01-.025.008c-.007 0-.016 0-.027-.006h0l-2.572-1.285-.269-.134-.268.134-2.572 1.285-.002.001a.045.045 0 01-.026.006.056.056 0 01-.024-.008l.49-2.709.058-.323-.24-.223-2.066-1.914.008-.001h0l2.875-.399zm4.662 5.583l.59-.107c.089.492-.456.86-.913.631l.323-.524z" fill="#fff" stroke="#CCC" stroke-width="1.2"/></svg>